<?xml version="1.0" encoding="UTF-8"?>
<svg width="124px" height="24px" viewBox="0 0 124 24" version="1.1" xmlns="http://www.w3.org/2000/svg" xmlns:xlink="http://www.w3.org/1999/xlink">
    <!-- Generator: Sketch 54.1 (76490) - https://sketchapp.com -->
    <title>logo-telcel</title>
    <desc>Created with Sketch.</desc>
    <g id="logo-telcel" stroke="none" stroke-width="1" fill="none" fill-rule="evenodd">
        <g id="LOGOTIPO-TELCEL-2019-01" fill="#263575" fill-rule="nonzero">
            <path d="M34.1028571,20.1657143 L34.1714286,19.8628571 L40.0742857,10.0857143 L43.1142857,10.0857143 L44.8857143,7.09714286 L41.8628571,7.09714286 L44.3257143,3.05714286 L40.12,3.05714286 L37.7142857,7.09714286 L35.4285714,7.09714286 L33.6571429,10.0857143 L35.8857143,10.0857143 L29.3371429,20.9428571 C29.1552062,21.2353406 29.0655988,21.5758487 29.08,21.92 C29.1166233,22.9121894 29.9271712,23.7000822 30.92,23.7085714 L35.5314286,23.7085714 L37.3257143,20.72 L34.6742857,20.72 C34.3652697,20.7201391 34.1121276,20.4745912 34.1028571,20.1657143 Z" id="Path"></path>
            <path d="M52.2742857,8 C50.7085714,8 46.8228571,8.16 44.8,10.36 C43.8099114,11.4015866 42.8843781,12.502685 42.0285714,13.6571429 C40.7036856,15.4797643 39.6042629,17.4560389 38.7542857,19.5428571 C37.2057143,23.5428571 42.8971429,23.7028571 42.8971429,23.7028571 L50.2857143,23.7028571 L52.5142857,20.2057143 L43.9428571,20.2057143 C43.9428571,20.2057143 42.4228571,20.0857143 43.3714286,18.3257143 C43.5828571,17.9257143 43.8342857,17.4857143 44.1028571,17.0285714 L54.48,17.0285714 C54.6857143,16.7142857 55.8914286,14.8685714 57.3371429,12.2 C59.4285714,8.41142857 54.0285714,8 52.2742857,8 Z M53.7657143,12.32 C53.5097661,12.928165 53.2019643,13.5131797 52.8457143,14.0685714 L45.9314286,14.0685714 C46.4282243,13.294948 46.9721072,12.5525956 47.56,11.8457143 C48.6068816,10.8568194 49.9885438,10.2996647 51.4285714,10.2857143 C52.5714286,10.2857143 54.4342857,10.7485714 53.7657143,12.2971429 L53.7657143,12.32 Z" id="Shape"></path>
            <path d="M88.5714286,8 C87.0057143,8 83.1142857,8.16 81.0971429,10.36 C80.0938696,11.3928594 79.1549603,12.4863453 78.2857143,13.6342857 C76.9673651,15.4663067 75.8738199,17.450036 75.0285714,19.5428571 C73.4742857,23.5428571 79.1657143,23.7028571 79.1657143,23.7028571 L86.5942857,23.7028571 L88.8228571,20.2057143 L80.2514286,20.2057143 C80.2514286,20.2057143 78.7371429,20.0857143 79.68,18.3257143 C79.8971429,17.9257143 80.1428571,17.4857143 80.4114286,17.0285714 L90.7714286,17.0285714 C90.9771429,16.7142857 92.1885714,14.8685714 93.6285714,12.2 C95.7028571,8.41142857 90.2857143,8 88.5714286,8 Z M90.0571429,12.32 C89.804451,12.9213509 89.4984696,13.4988908 89.1428571,14.0457143 L82.2285714,14.0457143 C82.7269013,13.2717198 83.2727089,12.5293451 83.8628571,11.8228571 C84.9060016,10.8489418 86.2758184,10.3006074 87.7028571,10.2857143 C88.8457143,10.2857143 90.7028571,10.7485714 90.0342857,12.2971429 L90.0571429,12.32 Z" id="Shape"></path>
            <path d="M65.36,18.92 C65.9554757,17.4827324 66.7499049,16.1362422 67.72,14.92 C69.1942857,13.0914286 71.2857143,11.3371429 73.5314286,11.3371429 L77.5942857,11.3371429 L79.7028571,8 L74.5885714,8 C71.965228,8.01478923 69.4164557,8.87439876 67.32,10.4514286 C66.1478617,11.3547021 65.1207513,12.4319155 64.2742857,13.6457143 C62.9479832,15.478553 61.8431629,17.4618589 60.9828571,19.5542857 C59.4285714,23.5542857 65.12,23.7142857 65.12,23.7142857 L71.4057143,23.7142857 L73.6057143,20.2171429 L66.32,20.2171429 C66.32,20.2171429 64.9371429,20.1828571 65.36,18.92 Z" id="Path"></path>
            <polygon id="Path" points="64.8457143 3.05714286 52.04 23.7028571 56.2228571 23.7028571 69.0342857 3.05714286"></polygon>
            <polygon id="Path" points="101.051429 3.05714286 88.2457143 23.7028571 92.4285714 23.7028571 105.24 3.05714286"></polygon>
            <path d="M18.1485714,4.52571429 L22.6,4.52571429 L22.96,4.05142857 L33.1085714,4.05142857 L33.7771429,3.01714286 L22.0914286,3.01714286 L23.04,1.53714286 L23.2057143,1.53714286 L23.8571429,0.52 L23.2857143,0.52 L22.6742857,1.53714286 L22.8571429,1.53714286 L21.92,3.01714286 L12.4342857,3.01714286 L11.7714286,4.05142857 L18.4685714,4.05142857 C18.3657143,4.38285714 18.2857143,4.35428571 18.1485714,4.52571429 Z" id="Path"></path>
            <path d="M14.4514286,9.92571429 L18.4514286,9.92571429 L18.8114286,9.45142857 L29.8171429,9.45142857 L30.3885714,8.40571429 L19.6285714,8.40571429 L19.9771429,7.93142857 L15.8057143,7.93142857 C15.6914286,8.09714286 15.5885714,8.25142857 15.4914286,8.40571429 L9.09142857,8.40571429 L8.42285714,9.45142857 L14.7771429,9.45142857 L14.4514286,9.92571429 Z" id="Path"></path>
            <path d="M15.8285714,13.3314286 L12.1428571,13.3314286 C12.0342857,13.5028571 11.9314286,13.6514286 11.8285714,13.8057143 L5.71428571,13.8057143 L5.07428571,14.8571429 L11.12,14.8571429 L10.8,15.3257143 L14.2857143,15.3257143 L14.6457143,14.8571429 L26.4114286,14.8571429 L27.0742857,13.8171429 L15.4628571,13.8171429 L15.8285714,13.3314286 Z" id="Path"></path>
            <path d="M16.2971429,7.21142857 L20.5257143,7.21142857 L20.8857143,6.73714286 L31.4571429,6.73714286 L32.12,5.71428571 L21.7142857,5.71428571 L22.0685714,5.24571429 L17.6514286,5.24571429 L17.3314286,5.71428571 L10.7371429,5.71428571 L10.1142857,6.73714286 L16.6228571,6.73714286 C16.5085714,6.89714286 16.4057143,7.05714286 16.2971429,7.21142857 Z" id="Path"></path>
            <path d="M16.6685714,21.4342857 L15.1428571,21.4342857 L15.6285714,21.9028571 L0.702857143,21.9028571 L0.0571428571,22.9542857 L16.72,22.9542857 L17.4228571,23.6228571 L17.84,22.9542857 L21.3942857,22.9542857 L22.0628571,21.9028571 L17.0914286,21.9028571 C16.96,21.7714286 16.8171429,21.6057143 16.6685714,21.4342857 Z" id="Path"></path>
            <path d="M14.3428571,18.76 L12.3314286,18.76 L12.8285714,19.2228571 L2.38857143,19.2228571 L1.71428571,20.2514286 L13.8914286,20.2514286 L14.3828571,20.7085714 L16.0285714,20.7085714 L15.6285714,20.2514286 L23.0571429,20.2514286 L23.72,19.2228571 L14.7371429,19.2228571 C14.6114286,19.0628571 14.48,18.9142857 14.3428571,18.76 Z" id="Path"></path>
            <path d="M13.7657143,16.04 L10.2857143,16.04 L9.97142857,16.5085714 L4.05714286,16.5085714 L3.38857143,17.56 L11.0914286,17.56 L11.5828571,18.0228571 L13.8342857,18.0228571 C13.7599867,17.8741837 13.6988023,17.7193106 13.6514286,17.56 L24.7257143,17.56 L25.3942857,16.5085714 L13.5942857,16.5085714 C13.6306785,16.3455524 13.6883137,16.1880161 13.7657143,16.04 L13.7657143,16.04 Z" id="Path"></path>
            <path d="M17.9028571,10.6457143 L13.96,10.6457143 L13.6514286,11.1142857 L7.42857143,11.1142857 L6.77714286,12.1542857 L12.9485714,12.1542857 C12.8457143,12.3257143 12.7371429,12.4742857 12.64,12.6285714 L16.3828571,12.6285714 L16.7428571,12.1542857 L28.12,12.1542857 L28.6914286,11.1142857 L17.5485714,11.1142857 L17.9028571,10.6457143 Z" id="Path"></path>
        </g>
    </g>
</svg>